<?xml version="1.0" encoding="UTF-8" ?>
<svg id="Layer_1" xmlns="http://www.w3.org/2000/svg" viewBox="0 0 150 150"><path
    d="M89.75,44.38c4.18-1.93,7.79-2.58,11.61-.52,2.07,1.11,2.41-.64,2.4-2.33-.03-4,.13-8-.05-11.99-.11-2.55,.62-3.72,3.33-3.42,1.65,.18,3.33,.11,4.99,.02,2.85-.17,3.75,1.22,3.75,3.92-.05,29.98-.07,59.96,.02,89.94,.01,3.42-1.45,4.2-4.53,4.19-23.98-.08-47.97-.1-71.96,.01-3.48,.02-4.63-1.14-4.62-4.62,.1-29.81,.12-59.63-.02-89.44-.02-3.43,1.15-4.08,4.26-4.06,15.66,.14,31.31,.15,46.97,0,3.07-.03,4.08,.8,3.91,3.91-.26,4.6-.07,9.23-.07,14.4Zm-47,30.67c0,12.49,.02,24.98-.02,37.47,0,2.17-.06,4.02,3.02,3.66,2.15-.26,3.59,.27,3.7-3.38,.74-25.09-.03-50.19,.34-75.28,.04-2.56-.64-3.48-3.33-3.46-2.66,.02-3.82,.51-3.78,3.53,.16,12.49,.07,24.98,.07,37.47Zm36.85,4.08c5.16,0,10.32,0,15.48,0,2.24,0,3.56-1.46,3.4-3.38-.13-1.47-1.24-2.7-3.43-2.66-9.82,.16-19.65,.08-29.47,.06-1.99,0-3.7,.23-3.82,2.77-.13,2.77,1.55,3.28,3.85,3.25,4.66-.06,9.32-.02,13.99-.03Zm.43-13.99c4.8,0,9.61-.07,14.41,.03,2.01,.04,3.98-.17,4.09-2.45,.1-2.19-1.49-3.56-3.82-3.57-9.77-.02-19.55-.02-29.32,0-2.12,0-3.52,1.11-3.56,3.28-.05,2.57,1.85,2.7,3.79,2.69,4.8-.02,9.61,0,14.41,0Z"
    style="fill:#4b8dca;"
  /></svg>
