<?xml version="1.0" encoding="UTF-8" ?>
<svg id="Layer_1" xmlns="http://www.w3.org/2000/svg" viewBox="0 0 150 150"><path
    d="M129.07,58.8c3.91,13.12-2.77,24.63-15,34.18-3.99,3.12-6.93,7.56-10.52,11.22-1.35,1.37-1.5,2.8-1.49,4.49,.04,4.49-.1,8.99,.05,13.48,.1,2.97-.97,4.24-4.04,4.14-4.65-.16-9.32-.16-13.97,0-3.06,.11-4.1-1.12-4.06-4.12,.11-9.98-.06-19.97,.09-29.95,.06-4.19,1.64-8.04,4.59-11.08,5.33-5.49,10.82-10.83,16.21-16.26,2.67-2.69,5.62-3.69,8.49-.65,2.69,2.84,1.63,5.74-.97,8.12-2.19,2-3.81,4.64-6.6,5.96-1.91,.9-2.37,2.8-1.51,4.13,1.03,1.6,2.91,1.1,4.24-.22,3.2-3.15,6.32-6.38,9.55-9.49,1.3-1.26,.91-2.75,.91-4.19,.03-10.65,.02-21.3,.03-31.95,0-4.86,2.04-7.12,6.54-7.34,4.38-.21,7.31,2.47,7.43,7.23,.16,6.49,.04,12.98,.04,22.3Z"
    style="fill:#4b8dca;"
  /><path
    d="M67.08,106.35c0,5.49-.1,10.98,.04,16.47,.06,2.46-.49,3.62-3.27,3.5-4.98-.2-9.98-.14-14.97-.02-2.22,.06-3.04-.8-2.8-2.91,.05-.49-.07-1.01,.02-1.49,2.19-11.78-2.23-20.57-11.5-27.86-4.61-3.63-8.55-8.23-12.43-12.8-2.56-3.01-3.16-5.82-3.12-9.38,.1-11.31,.03-22.63,.04-33.94,0-6.18,1.92-8.58,6.86-8.65,5.19-.07,7.13,2.33,7.13,8.88,0,9.65,.17,19.31-.09,28.95-.09,3.49,.9,5.97,3.51,8.18,2.27,1.93,4.39,4.09,6.32,6.36,1.44,1.69,2.85,2.42,4.54,.73,1.78-1.78-.4-2.58-1.26-3.51-2.26-2.44-4.56-4.87-7.04-7.07-2.7-2.39-2.66-4.89-.54-7.37,2.22-2.61,4.62-2.23,7.18-.07,5.96,5.03,11.49,10.48,16.98,15.99,3.06,3.07,4.64,6.59,4.45,11.03-.21,4.98-.05,9.98-.05,14.97Z"
    style="fill:#4b8dca;"
  /><path
    d="M53.08,38.46c.29-11.81,9.4-20.03,20.11-20.36,14.24-.43,21.36,10.11,21.78,20.21,.44,10.62-10.44,21.5-21.1,20.81-11.31-.73-20.42-8.11-20.8-20.66Z"
    style="fill:#4b8dca;"
  /></svg>
