<?xml version="1.0" encoding="UTF-8" ?>
<svg id="Layer_1" xmlns="http://www.w3.org/2000/svg" viewBox="0 0 150 150"><path
    d="M36.16,74.43c0-15.62,.17-31.24-.09-46.86-.1-5.77,2.43-7.59,7.73-7.56,21.15,.1,42.31,.1,63.46,0,5.68-.03,7.92,2.24,7.86,8.12-.24,22.81-.22,45.63,.01,68.44,.05,4.45-1.34,5.63-5.54,5.38-4.27-.25-8.6,.1-12.88,.42-5.96,.45-8.29,4.34-8.77,9.79-.05,.61,.04,1.24-.02,1.85-.44,4.83,2.2,11.25-1.11,14.05-2.81,2.38-9,.87-13.7,.9-9.24,.07-18.48,.03-27.72,.02-8.5-.01-9.22-.7-9.22-8.92,0-15.21,0-30.42,0-45.63Zm38.96-24.8c7.39,0,14.77-.08,22.16,.05,2.51,.04,4.79-.31,5.04-3.08,.26-2.96-2.09-3.47-4.55-3.47-14.77,.02-29.54,0-44.31,0-2.36,0-4.91,.28-4.8,3.32,.1,2.87,2.43,3.24,4.93,3.2,7.18-.1,14.36-.03,21.54-.04Zm-.1,19.73c7.59,0,15.18-.11,22.77,.06,2.77,.06,4.56-1.07,4.56-3.59,0-2.54-2.25-2.98-4.48-2.97-14.77,.02-29.54,0-44.31,.01-2.34,0-4.94,.16-4.9,3.21,.03,2.85,2.29,3.36,4.83,3.32,7.18-.1,14.36-.03,21.54-.03Zm.71,19.73c7.18,0,14.36-.11,21.54,.05,2.86,.06,5.1-.7,5.08-3.7-.02-2.57-2.41-2.86-4.58-2.86-14.77,.01-29.54,0-44.3,0-2.36,0-4.94,.21-4.81,3.27,.12,2.79,2.39,3.29,4.93,3.26,7.38-.11,14.77-.04,22.15-.04Z"
    style="fill:#4b8dca;"
  /><path
    d="M114.74,106.34c-7.6,7.59-14.49,14.48-21.92,21.89,0-5.75-.03-11.16,.01-16.57,.03-3.49,2.01-5.23,5.35-5.3,5.27-.1,10.54-.03,16.55-.03Z"
    style="fill:#4b8dca;"
  /></svg>
