<?xml version="1.0" encoding="UTF-8" ?>
<svg id="Layer_1" xmlns="http://www.w3.org/2000/svg" viewBox="0 0 150 150"><path
    d="M75.52,86.13c16.81,0,33.61,0,50.42,0,5.82,0,5.75,.68,5.6,6.48-.34,13.57-16.09,27.2-30.8,26.67-17.28-.62-34.61-.08-51.91-.17-15.71-.08-29.24-12.41-30.18-29.54-.17-3.17,2.78-3.47,5.45-3.47,17.14,.05,34.28,.02,51.42,.02Z"
    style="fill:#4b8dca;"
  /><path
    d="M28.2,43.96c7.81,2.09,15.66,4.08,23.42,6.35,1.96,.58,3.22,2.37,2.69,4.72-.57,2.48-2.7,2.43-4.38,2.03-8.04-1.93-16.05-3.98-24-6.23-1.48-.42-3.06-1.92-2.38-3.83,.69-1.95,2.21-3.32,4.66-3.05Z"
    style="fill:#4b8dca;"
  /><path
    d="M74.7,77.12c-.19-.02-1.39,.22-2.13-.25-1.9-1.21-5.6,.08-5.83-2.64-.19-2.34,1.65-4.83,3.66-6.66,3.54-3.24,11.97-3.97,15.96-1.37,1.72,1.12,1.05,2.52,.55,3.87-1.48,3.96-6.61,7.11-12.22,7.05Z"
    style="fill:#4b8dca;"
  /><path
    d="M109.38,61.53c.81,3.9-1.16,4.56-4.9,3.59-7.12-1.85-11.74-7.01-11.07-12.91,.33-2.87,.87-4.79,4.94-3.28,8.02,2.97,11.02,5.77,11.02,12.6Z"
    style="fill:#4b8dca;"
  /><path
    d="M55.31,72.13c-2.2-.21-6.74-.16-7.5-3.1-.94-3.61,2.96-5.93,5.99-8.06,4.71-3.3,9.07-.85,13.53,.27,1.69,.43,1,1.74,.62,2.82-1.65,4.64-6.61,8.08-12.64,8.07Z"
    style="fill:#4b8dca;"
  /><path
    d="M90.37,56.6c.31,3.43-1.43,4.37-4.88,3.51-7.71-1.93-11.94-7.19-11.13-13.93,.2-1.69,.66-2.91,2.55-3.01,6.27-.33,13.57,6.79,13.47,13.43Z"
    style="fill:#4b8dca;"
  /><path
    d="M94.72,82.22c-1.31-.12-2.67-.08-3.94-.38-5.35-1.26-6.04-3.65-2.34-7.89,3.48-3.99,12.66-5.48,17.05-2.73,2.31,1.44,1.04,3.36,.13,4.67-2.6,3.73-5.61,7.07-10.9,6.33Z"
    style="fill:#4b8dca;"
  /><path
    d="M55.38,42.38c-.6-3.96,.65-4.9,5.14-3.45,5.75,1.85,9.34,5.05,10.49,10.93,.76,3.88-1.36,5.98-5.05,5.07-6.76-1.66-10.58-6.03-10.58-12.55Z"
    style="fill:#4b8dca;"
  /><path
    d="M122.38,76.26c-3.34-.73-6.74-1.24-9.99-2.24-3.46-1.07-.51-3.58-.66-5.35-.09-1.06,.62-3.19,3.28-1.84,2.55,1.29,5.58,1.71,8.44,2.27,2.48,.48,4.07,1.71,3.82,4.27-.29,2.92-2.55,3.04-4.89,2.89Z"
    style="fill:#4b8dca;"
  /><path
    d="M39.37,33.21c3.66,1.12,7.25,2.06,10.71,3.35,1.68,.63,1.65,2.53,1.07,3.88-.73,1.7-2.15,3.17-4.25,2.63-3.11-.8-6.14-1.9-9.2-2.88-1.93-.61-2.45-2.16-2.23-3.89,.29-2.23,2.53-2.22,3.9-3.09Z"
    style="fill:#4b8dca;"
  /><path
    d="M33.34,58.88c2.96,.88,6.01,1.54,8.84,2.73,1.73,.72,2.68,2.5,2.11,4.57-.59,2.11-2.4,2.19-4.03,1.9-2.86-.51-5.68-1.23-8.49-1.99-2.08-.56-3.87-1.88-3.19-4.18,.57-1.95,2.33-3.18,4.76-3.03Z"
    style="fill:#4b8dca;"
  /></svg>
