<?xml version="1.0" encoding="UTF-8" ?>
<svg id="Layer_1" xmlns="http://www.w3.org/2000/svg" viewBox="0 0 150 150"><g
    id="_0mAQSi"
  ><path
      d="M112.08,57.28c-.42,7.44-2.92,14.31-6,20.98-8.19,17.76-18.91,34-30.23,49.86-2.67,3.74-4.95,3.89-7.44,.36-12.66-17.97-24.86-36.19-33.24-56.7-9.98-24.44,6.95-47.93,26.27-53.09,25-6.68,50.63,12.65,50.64,38.6Zm-39.9,15.81c10.68-.07,18.57-7.75,18.5-18.01-.06-10.21-8.06-17.68-18.88-17.63-10.64,.04-18.54,7.73-18.53,18.03,.01,10.09,8.16,17.69,18.91,17.62Z"
      style="fill:#4b8dca;"
    /></g></svg>
