<?xml version="1.0" encoding="UTF-8" ?>
<svg id="Layer_1" xmlns="http://www.w3.org/2000/svg" viewBox="0 0 150 151"><path
    d="M76.04,45.07c-4.16,0-8.33,.1-12.49-.04-3.37-.11-6.35,1.02-9.53,1.9-7.16,1.98-14.66,2.41-21.77-.44-4.28-1.72-6.78-7.03-5.84-10.83,1.28-5.2,5.34-8.71,10.54-8.55,19.33,.59,38.62,1.96,57.98,2.31,15.9,.29,23.75,13.99,19.24,28.37-2.14,6.82-11.11,13.12-18.43,13.27-3.16,.06-6.33,.05-9.5,0-2.24-.04-4.46-.3-4.07,3.14,.23,2.04-1.41,1.85-2.72,1.86-3.83,.02-7.66,.04-11.49-.01-1.07-.01-2.41,.36-2.69-1.38-.23-1.43,.74-3.66-2.09-3.57-2.92,.1-6.15-.86-8.53,1.5-1.25,1.24-2.17,3.19-1.11,4.99,1.32,2.27,3.53,3.41,6.2,3.42,8.33,.04,16.68,.42,24.98-.03,11.42-.63,19.86,10.01,20.54,19.55,.78,10.88-9.4,21.64-19.84,21.54-1.71-.02-3.03-.14-3.36,2.36-.66,4.95-4,8.48-8.78,8.3-4.72-.17-8.01-3.48-8.06-8.84-.02-2.53-1.96-1.72-3.27-1.79-6.6-.36-9.7-2.86-9.7-7.96,0-4.05,4.4-7.7,9.6-8.09,1.17-.09,3.33,.7,3.2-1.22-.32-4.86,2.97-3.69,5.57-3.74,2.83-.06,5.66-.01,8.5,0,1.36,0,2.93,0,3.01,1.8,.1,2.06,.31,3.86,2.97,3.1,2.16-.62,4.11-2.13,3.98-4.46-.11-1.99-.89-4.33-3.73-4.41-2-.05-4,.05-6-.04-8.75-.42-17.59,1.15-26.24-1.02-8.31-2.08-17.59-9.11-15.91-23.74,1.03-8.93,10.48-17.15,20.28-17.23,1.67-.01,3.33,.05,5-.03,.79-.04,2.25-.26,2.27-.49,.7-8.19,6.91-3.67,10.55-4.28,2.66-.45,7.5-2.38,7.19,3.95-.05,1.02,1.61,.81,2.56,.83,2.66,.03,5.33-.04,8,.03,3.42,.09,6-1.19,6.09-4.82,.09-3.83-3.15-4.92-6.1-5.09-5.64-.33-11.32-.1-16.99-.1Z"
    style="fill:#4b8dca;"
  /><path
    d="M78.8,76.34c-.33,0-.72,.12-.99-.02-2.25-1.14-6.39,2.64-7.04-2.56-.85-6.89,1.83-12.61,6.24-13.35,3.93-.66,8.16,.36,9.83,5.72,2.73,8.72,1.68,10.21-8.05,10.21Z"
    style="fill:#4b8dca;"
  /></svg>
