<?xml version="1.0" encoding="UTF-8" ?>
<svg id="Layer_1" xmlns="http://www.w3.org/2000/svg" viewBox="0 0 150 150"><path
    d="M78.59,46.73c6.21,0,12.42-.03,18.63,.01,1.75,.01,3.63-.58,4.73,1.77,6.95,14.82,16.51,28.46,20.95,44.39,5.55,19.9-11.22,42.01-31.84,42.1-10.69,.05-21.58,1.77-32.07-1.09-20.91-5.69-31.72-28.13-22.86-47.72,5.64-12.48,12.27-24.51,18.41-36.76,1.03-2.05,2.4-2.85,4.79-2.77,6.41,.2,12.83,.07,19.25,.06Zm-.72,18.57c-1.94-.1-3.58,.66-3.44,1.74,.71,5.28-3.4,7.38-6.22,10.43-1.06,1.15-1.58,2.73-1.72,4.5-.64,7.8,3.27,12.13,12.72,13.07,2.78,.28,4.62,1.35,4.51,3.82-.1,2.39-1.99,3.93-4.73,3.83-2.07-.07-4.15,0-6.22,0-1.85,0-3.3,.65-3.64,2.61-.29,1.66-.4,3.66,1.61,4.2,2.64,.71,3.63,2.03,3.31,4.75-.23,1.95,1.15,3.1,2.97,3.27,1.92,.18,3.54-1.01,3.28-2.84-.6-4.2,2.37-4.93,5.07-6.45,4.19-2.37,5.57-6.28,5.08-11.04-.45-4.41-2.77-6.9-6.8-8.58-2.06-.86-3.99-.75-6-.89-2.69-.18-4.48-1.81-4.39-4.22,.07-2,1.77-3.55,4.24-3.55,2.28,0,4.57,0,6.82-.29,1.8-.23,3.91-.56,3.58-3.23-.64-5.15-9.66-3.42-8.47-10.22,.04-.25-1.3-.75-1.56-.9Z"
    style="fill:#4b8dca;"
  /><path
    d="M90.99,42.77c-1.24,0-2.51-.16-3.73,.03-4.75,.74-7.14-.9-7.68-6-.63-5.89-1.74-11.78-3.29-17.49-1.2-4.44,.76-5.21,4.29-5.01,3.36,.2,7.14-1.13,9.7,2.36,1.15,1.56,1.72-.07,2.17-.52,3.34-3.33,7.47-1.77,11.2-1.66,3.08,.09,2.95,2.82,2.44,5.22-1.15,5.39-2.58,10.75-3.33,16.19-.69,4.98-2.3,8.1-8.05,6.92-1.19-.25-2.48-.04-3.72-.03Z"
    style="fill:#4b8dca;"
  /><path
    d="M65.79,42.77q-10.25,0-12.78-10.55c-3.12-13.01-3.11-12.77,10.17-13.08,6.17-.14,9.22,2.17,9.72,8.25,.15,1.8,.84,3.56,1.18,5.35q1.89,10.02-8.28,10.03Z"
    style="fill:#4b8dca;"
  /></svg>
