<?xml version="1.0" encoding="UTF-8" ?>
<svg id="Layer_1" xmlns="http://www.w3.org/2000/svg" viewBox="0 0 150 150"><g
    id="_623X7Z"
  ><g><path
        d="M51.34,22.33c7.04-.1,12.3,1.28,17.39,3.54,3.02,1.34,3.2,2.79,.78,5.06-6.43,6.05-12.71,12.24-19.09,18.34-4.98,4.76-5.79,10.02-2.07,13.94,4,4.23,9.68,4.1,14.63-.42,3.81-3.49,7.6-7,11.24-10.65,2.01-2.02,3.56-2.4,5.83-.22,12.93,12.5,26.06,24.8,38.92,37.36,5.71,5.58,3.95,12.1-3.74,14.45-2.08,.64-2.96,1.39-3.3,3.56-.61,3.87-3.13,6.38-7.06,6.58-2.85,.14-3.6,1.27-3.89,3.86-.35,3.15-2.75,4.91-5.59,5.76-3.1,.93-5.49,.96-5.16-3.73,.42-6.08-2.72-9.42-9.51-10.55-2.18-.36-3.25-.8-3.32-3.21-.16-5.7-3.85-8.24-8.97-8.88-2.36-.3-3.58-.95-3.84-3.49-.56-5.43-3.72-8.43-9.19-8.6-2.44-.07-2.79-1.19-3.21-3.32-1.79-9.13-10.3-11.84-17.23-5.65-7.96,7.11-9.59,6.77-14.63-3.05-12.03-23.44,5.42-50.68,31.03-50.69Z"
        style="fill:#4b8dca;"
      /><path
        d="M98.94,22.31c14.68,.06,28.32,8.94,33.58,21.88,5.23,12.84,2.3,27.16-7.24,36.99-2.88,2.97-4.86,3.49-8.11,.3-11.86-11.67-24.08-22.98-35.98-34.61-2.64-2.58-4.26-2.73-6.83,0-4.32,4.61-8.96,8.93-13.6,13.22-3.72,3.44-7.14,3.67-9.59,.74-3.05-3.63-.95-6.48,1.73-9.06,6.95-6.7,13.81-13.49,20.96-19.98,7.05-6.4,15.55-9.43,25.08-9.48Z"
        style="fill:#4b8dca;"
      /><path
        d="M43.03,111.75c-2.64-.34-4.48-1.36-5.51-3.47-.96-1.97-.82-4.12,.65-5.61,4.42-4.49,8.92-8.93,13.67-13.06,2.46-2.13,5.38-1.54,7.61,.81,1.93,2.04,2.37,4.66,.47,6.79-4.31,4.83-8.86,9.45-13.97,13.45-.86,.67-2.13,.81-2.92,1.1Z"
        style="fill:#4b8dca;"
      /><path
        d="M55.92,123.93c-2.59-.19-4.34-1.23-5.51-3.3-1.11-1.97-1.1-3.99,.35-5.59,4.36-4.8,8.9-9.46,14.05-13.42,2.48-1.91,5.13-1.15,7.26,.87,1.84,1.75,2.75,4.2,1.01,6.28-4.47,5.36-9.31,10.39-15.07,14.42-.64,.45-1.54,.54-2.09,.73Z"
        style="fill:#4b8dca;"
      /><path
        d="M68.57,135.95c-2.39,.08-4.14-1-5.34-3-1.27-2.11-1.09-4.32,.55-5.98,4.3-4.37,8.63-8.74,13.27-12.72,2.56-2.2,5.7-1.74,8.05,.79,2.3,2.48,1.98,5.2-.33,7.53-3.98,4-8.05,7.89-12.14,11.78-1.1,1.04-2.46,1.69-4.06,1.61Z"
        style="fill:#4b8dca;"
      /><path
        d="M48.01,82.02c-.03,.31,.13,1.14-.21,1.6-4.46,6.03-9.57,11.47-16,15.36-2.13,1.29-4.63,.2-6.22-1.81-1.75-2.21-1.92-4.89-.02-6.88,4.24-4.44,8.56-8.88,13.34-12.71,3.88-3.11,8.94-.55,9.11,4.43Z"
        style="fill:#4b8dca;"
      /></g></g></svg>
