<?xml version="1.0" encoding="UTF-8" ?>
<svg id="Layer_1" xmlns="http://www.w3.org/2000/svg" viewBox="0 0 151 151"><g
    id="_4rVEjd"
  ><g><path
        d="M100.32,103.37c-4.36,2.2-5.67,5.66-6.24,9.72-.39,2.71-1.16,5.41-4.65,5.52-3.37,.1-4.55-2.2-5.07-5.27-.96,2.59-.78,5.39-2.65,7.45-1.92,2.12-4.26,3.15-7.12,2.87-4.97-.49-6.77-3.52-7.24-12.18-1.24,.08-1.01,1.1-1.06,1.8-.19,3.02-1.33,5.24-4.69,5.33-3.56,.09-4.33-2.68-4.76-5.36-.56-3.51-1.49-6.7-5.63-9.48,0,6.9,.15,12.97-.05,19.03-.17,5.23-3.15,8.72-8.08,10.14-4.76,1.37-8.47-.35-11.47-3.97-1.67-2.01-2.12-4.42-2.09-7.01,.07-5.94,.02-11.89,.02-18.53-4.36,2.78-5.48,6.6-6.15,10.45-.54,3.12-1.77,5.14-5.11,4.69-3.46-.46-3.79-3.18-3.73-6.04,.23-10.82,10.94-20.73,23.14-21.49,8.39-.52,15.92,1.5,21.87,7.65,2.01,2.08,3.33,1.72,5.46,.36,6.78-4.33,13.88-4.59,20.61-.14,2.75,1.82,4.04,1.23,6.21-.74,12.58-11.39,33.11-8.98,41.39,4.73,1.92,3.18,3.09,6.6,3.02,10.4-.05,2.8-.8,5.07-3.98,5.3-3.07,.23-4.4-1.56-4.8-4.51-.6-4.36-2.15-8.29-6.95-11.34,1.11,5.4,1.93,10.03,3.03,14.6,1.33,5.53-.52,9.93-4.81,13.19-4.45,3.39-9.44,3.91-14.52,1.23-4.73-2.5-6.87-6.4-6.74-11.82,.13-5.5,2.43-10.6,2.83-16.57Z"
        style="fill:#4b8dca;"
      /><path
        d="M101.24,40.24c2.71-.92,4.17-2.6,6.4-2.06,3.27,.79,4.66,4.3,2.32,6.94-3.08,3.47-6.48,6.67-9.94,9.78-2.1,1.89-4.54,1.87-6.72-.15-2.8-2.6-5.61-5.19-8.38-7.82-2.26-2.15-3.57-4.71-1.21-7.4,2.28-2.6,4.74-1.51,6.92,.54,.33,.31,.81,.47,1.91,1.1,0-6.53,.06-12.59-.02-18.65-.04-3.13,.56-6.02,4.22-6.07,3.57-.05,4.53,2.69,4.51,5.89-.05,5.79-.01,11.59-.01,17.9Z"
        style="fill:#4b8dca;"
      /><path
        d="M49.54,40.12c0-6.13,.05-11.6-.02-17.06-.04-3.25,.48-6.45,4.34-6.59,4.05-.15,4.43,3.1,4.4,6.34-.06,5.93-.02,11.87-.02,17.77,1.85,.29,2.32-1.08,3.26-1.64,1.93-1.15,3.82-1.3,5.46,.34,1.79,1.78,1.9,4.21,.35,5.87-3.38,3.63-7.03,7.05-10.84,10.23-2.09,1.75-4.46,.79-6.3-.92-2.79-2.6-5.49-5.31-8.21-7.99-1.87-1.85-3.44-3.89-1.41-6.5,2.05-2.63,4.51-2.3,7.03-.56,.37,.26,.87,.32,1.96,.7Z"
        style="fill:#4b8dca;"
      /><path
        d="M110.47,72.04c4.7-.06,8.21,2.96,8.43,7.24,.22,4.16-3.81,8.31-8.13,8.38-4.56,.07-8.25-3.55-8.21-8.05,.04-4.57,3.11-7.52,7.91-7.57Z"
        style="fill:#4b8dca;"
      /><path
        d="M40.12,72.04c4.91-.03,8,2.79,8.11,7.41,.1,4.57-3.56,8.27-8.11,8.21-4.18-.06-8.07-3.91-8.07-7.99,0-4.45,3.33-7.6,8.08-7.63Z"
        style="fill:#4b8dca;"
      /><path
        d="M75.47,79.05c3.95,.01,6.67,2.6,6.74,6.41,.07,3.86-3.07,7.11-6.83,7.07-3.74-.03-6.9-3.37-6.77-7.17,.12-3.74,2.94-6.33,6.87-6.31Z"
        style="fill:#4b8dca;"
      /></g></g></svg>
