<?xml version="1.0" encoding="UTF-8" ?>
<svg id="Layer_1" xmlns="http://www.w3.org/2000/svg" viewBox="0 0 150 150"><path
    d="M99.07,113.37c5.91,0,11.83,.11,17.73-.04,4.1-.1,7.54,.68,7.52,5.59-.01,4.82-3.61,5.87-7.54,5.91-8.18,.08-16.37,.03-24.55,.03-20.67,0-41.35,.01-62.02-.02-2.33,0-4.65,.26-6.95-.86-2.72-1.33-3.94-3.39-3.47-6.16,.48-2.78,2.32-4.46,5.37-4.45,6.89,.02,13.78,0,21.37,0-2.28-3.14-5.58-3.93-8.1-5.73-3.69-2.63-8.05-5.09-4.61-10.74,3.1-5.09,7.15-3.14,11.11-1.28,.91,.43,1.63,1.49,3.61,.35-4.57-7.03-9.09-14.04-13.67-21.02-1.69-2.57-3.33-5.05-1.42-8.24,3.13-5.23,8.41-5.1,12.22,.47,6.2,9.06,12.29,18.2,19.35,28.67,0-10.78,0-19.95,0-29.11,0-5.03,.7-10.12,7.01-10.13,6.27-.01,7.12,4.9,7.06,10.07-.1,8.4-.03,16.81-.03,25.36,2.35,.04,2.51-2.03,3.21-3.26,8.91-15.72,17.72-31.5,26.56-47.27,1.04-1.86,1.93-3.83,3.17-5.55,2.36-3.24,5.43-5.06,9.25-2.51,3.54,2.36,4.18,5.58,2,9.44-7.09,12.6-14.07,25.26-21.1,37.9-3.46,6.22-6.91,12.45-11.14,20.07,7.34-4.15,13.18-7.45,19.01-10.75,3.91-2.22,6.97-1.03,9.18,2.55,2.42,3.91,.88,6.97-2.65,9.12-5.87,3.58-11.86,6.97-17.8,10.45,.1,.37,.21,.75,.31,1.12Zm-27.29,0c3.65,0,7.32-.21,10.95,.05,4.76,.35,4.92-1.68,3.4-5.33-2.38-5.7-8.69-10.21-14.43-10.03-5.68,.18-11.99,5.17-13.94,10.73-1.11,3.15-.94,4.87,3.06,4.63,3.64-.22,7.3-.05,10.95-.05Z"
    style="fill:#4b8dca;"
  /><path
    d="M65.03,28.88c-.38-4.78,1.3-8.99,6.59-9.6,4.31-.49,6.82,2.69,7.42,7.02,.97,7.09-1.35,12.22-5.9,13.14-4.73,.96-8.14-3.39-8.11-10.56Z"
    style="fill:#4b8dca;"
  /></svg>
