<?xml version="1.0" encoding="UTF-8" ?>
<svg
  id="Layer_1"
  xmlns="http://www.w3.org/2000/svg"
  viewBox="0 0 456.63 166.04"
><path
    d="M15.45,139.86V24.1c.34-1.32,.68-2.63,1.5-3.76,1.99-2.76,4.66-4.01,8.07-4.01,133.57,.02,267.14,.02,400.71,.02,.29,0,.58,0,.86,0,.96,.04,1.9,.19,2.82,.52,3.68,1.33,5.92,4.68,5.92,8.88,0,37.48,0,74.97,0,112.45,0,.34,0,.67-.02,1.01-.1,1.66-.6,3.19-1.59,4.55-1.97,2.71-4.65,3.87-7.99,3.87-133.55-.02-267.09-.01-400.64-.01-.24,0-.48,0-.72,0-2.98-.05-5.34-1.32-7.16-3.65-.96-1.22-1.4-2.64-1.75-4.11ZM225.42,24.08c-66.67,0-133.33,0-200,0-.31,0-.62,0-.94,0-.82,.03-1.26,.48-1.3,1.31,0,.19,0,.38,0,.58,0,37.34,0,74.68,0,112.02,0,.24,0,.48,.01,.72,.06,.67,.48,1.1,1.15,1.16,.29,.02,.58,.01,.86,.01,133.45,0,266.9,0,400.36,0,.24,0,.48,0,.72,0,.82-.04,1.26-.48,1.3-1.31,0-.19,0-.38,0-.58,0-37.34,0-74.68,0-112.02,0-.22,0-.43,0-.65-.05-.75-.48-1.19-1.22-1.23-.31-.02-.62,0-.94,0-66.67,0-133.33,0-200,0Z"
    style="fill:#025cbb;"
  /><path
    d="M112.38,120.3c-14.73,0-29.46,0-44.19,0q-.85,0-.6-.77c8.05-24.99,16.1-49.98,24.14-74.97,.2-.62,.45-.84,1.14-.84,21.23,.02,42.46,.02,63.69,0,.73,0,.91,.18,.91,.9-.04,4.55-.03,9.11,0,13.66,0,.7-.13,.92-.89,.92-16.07-.03-32.14-.01-48.22-.04-.75,0-.93,.19-.93,.93,.04,4.46,.04,8.92,0,13.37,0,.73,.22,.84,.88,.84,10.99-.02,21.97,0,32.96-.03,.74,0,.9,.19,.89,.9-.03,4.58-.04,9.15,0,13.73,0,.72-.21,.85-.88,.85-10.99-.02-21.97,0-32.96-.03-.74,0-.9,.19-.9,.91,.04,4.46,.04,8.92,0,13.37,0,.77,.23,.88,.92,.88,16.07-.02,32.14,0,48.22-.03,.73,0,.91,.18,.9,.9-.03,4.58-.03,9.15,0,13.73,0,.64-.14,.83-.82,.83-14.75-.02-29.51-.02-44.26-.02Z"
    style="fill:#fad504;"
  /><path
    d="M232.61,120.31h-.86c-5.54,0-11.08,0-16.62,.01-.5,0-.77-.16-1.02-.57-3.09-5.02-6.21-10.01-9.26-15.04-.54-.89-1.08-1.17-2.13-1.16-6.4,.07-12.81,.03-19.21,.04-1.08,0-.93-.11-.93,.9,0,5.03-.01,10.07,.01,15.1,0,.59-.14,.75-.74,.75-4.68-.03-9.35-.02-14.03,0-.51,0-.69-.1-.69-.66,.02-25.09,.01-50.18,0-75.27,0-.47,.07-.67,.61-.67,11.99,.03,23.99-.09,35.98,.08,13.28,.2,25.14,10.05,28.06,23,2.74,12.16-1.9,24.27-12.05,31.37-.47,.33-.47,.55-.19,1,4.21,6.77,8.4,13.55,12.59,20.33,.14,.22,.26,.44,.47,.8Zm-50.04-46.67c0,4.55,.01,9.1-.01,13.65,0,.63,.12,.84,.8,.84,6.35-.03,12.71-.02,19.06-.02,.58,0,1.15,0,1.72-.06,8.15-.92,13.83-8.14,12.83-16.29-.87-7.04-7.01-12.54-14.11-12.57-6.55-.03-13.09,0-19.64-.02-.54,0-.68,.13-.67,.67,.02,4.6,.01,9.2,.01,13.8Z"
    style="fill:#005bba;"
  /><path
    d="M267.42,82.01c0-12.46,0-24.93-.02-37.39,0-.72,.16-.91,.9-.91,21.23,.02,42.46,.02,63.69,0,.66,0,.89,.12,.88,.84-.04,4.6-.03,9.2,0,13.8,0,.64-.14,.83-.81,.83-16.1-.02-32.19-.01-48.29-.03-.7,0-.91,.13-.9,.88,.04,4.51,.03,9.01,0,13.52,0,.6,.14,.75,.74,.74,11.04-.02,22.07,0,33.11-.03,.66,0,.89,.11,.88,.84-.04,4.6-.03,9.2,0,13.8,0,.66-.16,.83-.82,.83-11.01-.02-22.02,0-33.03-.03-.68,0-.87,.14-.87,.85,.03,9.63,0,19.27,.04,28.9,0,.72-.2,.85-.87,.84-4.58-.03-9.16-.04-13.75,0-.77,0-.88-.24-.88-.92,.02-12.46,.01-24.93,.01-37.39Z"
    style="fill:#005bba;"
  /><path
    d="M375.22,77.65c.29-.21,.34-.48,.44-.71,5.01-10.83,10.03-21.66,15.02-32.5,.25-.54,.53-.72,1.12-.72,5.13,.02,10.27,.01,15.4,.01,.24,0,.47,0,.82,0-.2,.46-.36,.82-.53,1.18-8.07,17.45-16.14,34.91-24.22,52.36-.2,.42-.29,.85-.29,1.31,0,6.95,0,13.9,.03,20.85,0,.75-.21,.89-.92,.89-4.58-.03-9.16-.03-13.74,0-.63,0-.84-.13-.84-.81,.03-6.95,.01-13.9,.03-20.85,0-.54-.11-1.03-.33-1.52-8.09-17.47-16.17-34.95-24.25-52.42-.06-.13-.11-.27-.18-.39-.26-.45-.17-.62,.38-.61,1.46,.03,2.93,0,4.39,0,3.72,0,7.44,.02,11.15-.02,.62,0,.92,.18,1.18,.74,5.02,10.9,10.07,21.8,15.11,32.7,.07,.15,.14,.3,.23,.5Z"
    style="fill:#005bba;"
  /><path
    d="M242.28,81.99c0-12.48,0-24.97-.02-37.45,0-.66,.17-.83,.82-.82,4.63,.03,9.26,.03,13.89,0,.59,0,.75,.14,.75,.75-.02,25.04-.02,50.07,0,75.11,0,.61-.16,.74-.75,.74-4.63-.03-9.26-.03-13.89,0-.64,0-.83-.13-.83-.81,.02-12.51,.02-25.01,.02-37.52Z"
    style="fill:#005bba;"
  /><path
    d="M59.38,95.36c-.83-2.57-1.65-5.09-2.46-7.62-4.64-14.41-9.28-28.81-13.92-43.22q-.25-.79,.6-.79c10.55,0,21.11,0,31.66,0q.87,0,.62,.79c-5.39,16.73-10.78,33.45-16.17,50.18-.06,.2-.07,.43-.33,.66Z"
    style="fill:#005bba;"
  /></svg>
