<?xml version="1.0" encoding="UTF-8" ?>
<svg id="Layer_1" xmlns="http://www.w3.org/2000/svg" viewBox="0 0 151 150"><path
    d="M69.38,57.67c-10.5,0-21,.2-31.49-.1-3.9-.11-5.01,1.16-4.55,4.78,.25,1.97-.13,4.01,.08,5.99,.5,4.59-1.83,6.2-6.03,6.36-11.57,.44-12.01,.06-12.01-11.54,0-11.5,0-22.99,0-34.49,0-8.64,1.43-9.97,10.05-9.39,7.65,.52,7.95,.84,7.95,8.55q0,8.84,8.84,8.84c5.83,0,11.67-.12,17.49,.05,2.73,.08,4.15-.62,3.67-3.56-.03-.16,0-.33,0-.5q.16-7.98-7.68-7.99c-1,0-2,0-3,0-2.56-.02-4.2-1.32-4.24-3.84-.05-2.78,1.62-4.16,4.44-4.15,9.66,.02,19.33,0,28.99,0,2,0,4.01-.13,5.99,.06,2.32,.23,4.33,1.7,4.22,3.92-.11,2.22-1.4,4.41-4.53,4.04-1.64-.19-3.36,.17-4.99-.07-4.79-.71-6.49,.71-6.45,6.01,.04,5.16,1.5,6.14,6.38,6.19,10.01,.09,20.15-1.63,30.03,1.77,11.42,3.94,19.79,15.24,19.84,27.21,.01,2.75-.68,5.02,3.51,6.62,3.39,1.29,1.32,6.61,1.3,10.1-.02,2.49-2.5,2.13-4.31,2.14-7.33,.01-14.67-.14-21.99,.07-3.55,.1-5.11-1.28-4.47-4.66,.6-3.17-2.51-7.86,4.12-8.85,1.88-.28,1.28-4.72,.53-6.81-1.37-3.81-3.89-6.82-8.71-6.77-11,.11-21.99,.03-32.99,.03Z"
    style="fill:#4b8dca;"
  /><path
    d="M121.71,136.94c-11.37-.09-18.36-10.71-13.84-21.22,3.11-7.24,7.92-13.49,12.11-20.11,1.1-1.73,2.31-2.04,3.72-.15,5.49,7.37,10.85,14.97,13.43,23.8,2.63,9.01-5.46,17.75-15.42,17.67Z"
    style="fill:#4b8dca;"
  /></svg>
